<svg width="20" height="20" viewBox="0 0 20 20" fill="none" xmlns="http://www.w3.org/2000/svg">
<g id="Icon / cancel" clip-path="url(#clip0_392_194)">
<path id="Vector" d="M9.96377 0.00012207C15.4665 0.00012207 19.9275 4.46117 19.9275 9.96389C19.9275 15.4666 15.4665 19.9277 9.96377 19.9277C4.46105 19.9277 0 15.4666 0 9.96389C0 4.46117 4.46105 0.00012207 9.96377 0.00012207ZM1.3587 9.96389C1.3587 12.2461 2.2653 14.4348 3.87906 16.0486C5.49283 17.6624 7.68156 18.569 9.96377 18.569C12.246 18.569 14.4347 17.6624 16.0485 16.0486C17.6622 14.4348 18.5688 12.2461 18.5688 9.96389C18.5688 7.68168 17.6622 5.49295 16.0485 3.87918C14.4347 2.26542 12.246 1.35882 9.96377 1.35882C7.68156 1.35882 5.49283 2.26542 3.87906 3.87918C2.2653 5.49295 1.3587 7.68168 1.3587 9.96389Z" fill="#C7C7CF"/>
<path id="Vector_2" d="M6.14522 13.8548C6.05223 13.7618 6 13.6356 6 13.5041C6 13.3726 6.05223 13.2465 6.14522 13.1535L9.30167 9.99701L6.14522 6.84055C6.05487 6.74701 6.00488 6.62172 6.00601 6.49168C6.00714 6.36163 6.0593 6.23723 6.15126 6.14527C6.24322 6.05331 6.36762 6.00115 6.49766 6.00002C6.62771 5.99889 6.753 6.04888 6.84654 6.13923L10.003 9.29568L13.1594 6.13923C13.253 6.04888 13.3783 5.99889 13.5083 6.00002C13.6384 6.00115 13.7628 6.05331 13.8547 6.14527C13.9467 6.23723 13.9989 6.36163 14 6.49168C14.0011 6.62172 13.9511 6.74701 13.8608 6.84055L10.7043 9.99701L13.8608 13.1535C13.9511 13.247 14.0011 13.3723 14 13.5023C13.9989 13.6324 13.9467 13.7568 13.8547 13.8487C13.7628 13.9407 13.6384 13.9929 13.5083 13.994C13.3783 13.9951 13.253 13.9451 13.1594 13.8548L10.003 10.6983L6.84654 13.8548C6.75353 13.9478 6.6274 14 6.49588 14C6.36436 14 6.23823 13.9478 6.14522 13.8548Z" fill="#C7C7CF"/>
</g>
<defs>
<clipPath id="clip0_392_194">
<rect width="20" height="20" fill="white"/>
</clipPath>
</defs>
</svg>
