<svg width="12" height="8" viewBox="0 0 12 8" fill="none" xmlns="http://www.w3.org/2000/svg">
<g id="ep:arrow-down" clip-path="url(#clip0_385_535)">
<path id="Vector" d="M11.1671 0.656939L5.99947 6.23587L0.831869 0.656939C0.739541 0.557061 0.615598 0.501145 0.486534 0.501145C0.357471 0.501145 0.233529 0.557061 0.141201 0.656939C0.0964956 0.705451 0.06098 0.763353 0.0367343 0.827257C0.0124885 0.891161 0 0.95978 0 1.0291C0 1.09841 0.0124885 1.16703 0.0367343 1.23094C0.06098 1.29484 0.0964956 1.35274 0.141201 1.40125L5.63863 7.33745C5.73517 7.44167 5.86465 7.5 5.99947 7.5C6.13429 7.5 6.26377 7.44167 6.36031 7.33745L11.8577 1.4024C11.9028 1.35385 11.9385 1.29581 11.963 1.23169C11.9874 1.16758 12 1.09869 12 1.0291C12 0.959505 11.9874 0.890617 11.963 0.826502C11.9385 0.762386 11.9028 0.704342 11.8577 0.655794C11.7654 0.555915 11.6415 0.5 11.5124 0.5C11.3833 0.5 11.2594 0.555915 11.1671 0.655794V0.656939Z" fill="#27363F"/>
</g>
<defs>
<clipPath id="clip0_385_535">
<rect width="12" height="7" fill="white" transform="translate(0 0.5)"/>
</clipPath>
</defs>
</svg>
