<svg width="25" height="25" viewBox="0 0 25 25" fill="none" xmlns="http://www.w3.org/2000/svg">
<g id="Icon / indicators">
<path id="Union" fill-rule="evenodd" clip-rule="evenodd" d="M0 0.78125C0 0.349778 0.349778 0 0.78125 0C1.21272 0 1.5625 0.349778 1.5625 0.78125V23.4375L24.2188 23.4375C24.6502 23.4375 25 23.7873 25 24.2188C25 24.6502 24.6502 25 24.2188 25H1.5625H0V23.4375V0.78125ZM23.3455 5.09955C23.297 5.00907 23.2312 4.92903 23.1517 4.86402C23.0723 4.79892 22.9809 4.75011 22.8826 4.72038C22.7844 4.69064 22.6812 4.68057 22.579 4.69072C22.4769 4.70088 22.3777 4.73107 22.2872 4.77958C22.1968 4.82808 22.1167 4.89394 22.0517 4.97339L15.5673 12.9L11.4908 8.82183C11.4109 8.74202 11.3146 8.68048 11.2087 8.64145C11.1027 8.60241 10.9895 8.58681 10.877 8.59572C10.7644 8.60464 10.6551 8.63784 10.5566 8.69306C10.4581 8.74828 10.3727 8.8242 10.3064 8.91558L4.0564 17.5093C3.94363 17.6771 3.90028 17.8821 3.93547 18.0811C3.97066 18.2802 4.08165 18.4579 4.2451 18.5768C4.40856 18.6958 4.61175 18.7467 4.81199 18.719C5.01224 18.6913 5.19393 18.587 5.3189 18.4281L11.0314 10.5734L15.0736 14.6156C15.1508 14.6926 15.2432 14.7526 15.345 14.7918C15.4468 14.831 15.5556 14.8484 15.6645 14.8429C15.7734 14.8375 15.88 14.8093 15.9774 14.7602C16.0747 14.7111 16.1607 14.6421 16.2298 14.5578L23.2611 5.96402C23.3262 5.88463 23.375 5.79319 23.4047 5.69493C23.4345 5.59667 23.4445 5.49351 23.4344 5.39135C23.4242 5.28919 23.394 5.19004 23.3455 5.09955Z" fill="#EEEEEE"/>
</g>
</svg>
