<svg width="25" height="26" viewBox="0 0 25 26" fill="none" xmlns="http://www.w3.org/2000/svg">
<g id="Icon / projects">
<path id="Vector" d="M8.15219 1.08246H1.63044C1.19802 1.08246 0.78331 1.25368 0.477544 1.55843C0.171778 1.86319 0 2.27653 0 2.70752V24.3749C0 24.8059 0.171778 25.2193 0.477544 25.524C0.78331 25.8288 1.19802 26 1.63044 26H8.15219C8.58461 26 8.99932 25.8288 9.30508 25.524C9.61085 25.2193 9.78263 24.8059 9.78263 24.3749V2.70752C9.78263 2.27653 9.61085 1.86319 9.30508 1.55843C8.99932 1.25368 8.58461 1.08246 8.15219 1.08246ZM1.08696 6.49932H8.69567V20.5831H1.08696V6.49932ZM1.63044 2.16584H8.15219C8.29633 2.16584 8.43457 2.22291 8.53649 2.32449C8.63841 2.42608 8.69567 2.56386 8.69567 2.70752V5.41595H1.08696V2.70752C1.08696 2.56386 1.14422 2.42608 1.24614 2.32449C1.34806 2.22291 1.4863 2.16584 1.63044 2.16584ZM8.15219 24.9166H1.63044C1.4863 24.9166 1.34806 24.8596 1.24614 24.758C1.14422 24.6564 1.08696 24.5186 1.08696 24.3749V21.6665H8.69567V24.3749C8.69567 24.5186 8.63841 24.6564 8.53649 24.758C8.43457 24.8596 8.29633 24.9166 8.15219 24.9166ZM24.9647 22.6659L20.4552 1.29508C20.4116 1.08539 20.3268 0.886375 20.2057 0.709458C20.0847 0.53254 19.9297 0.381214 19.7498 0.264177C19.5699 0.14714 19.3685 0.0667013 19.1573 0.0274839C18.9461 -0.0117335 18.7292 -0.00895589 18.5191 0.0356571L12.159 1.39664C11.7362 1.4898 11.3674 1.74542 11.1326 2.10799C10.8978 2.47057 10.816 2.91083 10.9049 3.33317L15.4144 24.704C15.4581 24.9137 15.5428 25.1127 15.6639 25.2896C15.7849 25.4666 15.9399 25.6179 16.1198 25.7349C16.2997 25.852 16.5011 25.9324 16.7123 25.9716C16.9235 26.0108 17.1404 26.008 17.3506 25.9634L23.7106 24.6011C24.1335 24.5086 24.5025 24.2533 24.7374 23.8908C24.9723 23.5284 25.054 23.0881 24.9647 22.6659ZM13.659 11.1185L21.0816 9.53005L23.1196 19.1544L15.697 20.7443L13.659 11.1185ZM12.7568 6.84465L20.1807 5.2548L20.8601 8.4697L13.4362 10.0582L12.7568 6.84465ZM12.3886 2.45699L18.75 1.09465C18.7875 1.08659 18.8258 1.0825 18.8642 1.08246C18.9674 1.08279 19.0684 1.11289 19.1549 1.16913C19.2163 1.20841 19.269 1.25958 19.3101 1.3196C19.3512 1.37963 19.3797 1.44728 19.3941 1.51852L19.9566 4.19716L12.5326 5.7843L11.9688 3.11379C11.9372 2.97121 11.9637 2.82197 12.0424 2.69883C12.1211 2.57569 12.2456 2.48872 12.3886 2.45699ZM23.4824 23.5421L17.1196 24.9044C16.9792 24.9342 16.8327 24.9075 16.712 24.83C16.6507 24.7907 16.5979 24.7395 16.5568 24.6795C16.5157 24.6195 16.4872 24.5518 16.4729 24.4806L15.9131 21.8019L23.337 20.2134L23.9009 22.8853C23.9325 23.0277 23.9062 23.1768 23.8277 23.2999C23.7493 23.423 23.6251 23.5101 23.4824 23.5421Z" fill="#EEEEEE"/>
</g>
</svg>
