<svg width="20" height="21" viewBox="0 0 20 21" fill="none" xmlns="http://www.w3.org/2000/svg">
<g id="octicon:question-24" clip-path="url(#clip0_406_241)">
<path id="Vector" d="M9.06691 7.11686C8.87715 7.24731 8.72503 7.42537 8.62579 7.63316C8.5416 7.78773 8.4007 7.90359 8.23278 7.95634C8.06486 8.00908 7.88302 7.9946 7.72557 7.91593C7.56812 7.83726 7.44734 7.70055 7.38869 7.5346C7.33003 7.36865 7.33807 7.18642 7.41112 7.02628C7.59228 6.66215 7.87579 6.27809 8.3142 5.98642C8.75623 5.69023 9.3151 5.51813 9.99989 5.51813C10.5959 5.51813 11.2399 5.69476 11.7517 6.07882C12.037 6.28739 12.2684 6.56108 12.4266 6.87713C12.5848 7.19318 12.6652 7.54244 12.6611 7.89584C12.6611 8.83153 12.1964 9.45382 11.7309 9.90219C11.5588 10.0679 11.3695 10.2265 11.2064 10.3623L11.0733 10.4737C10.9335 10.588 10.8019 10.7118 10.6792 10.8442V12.0852C10.6792 12.2653 10.6077 12.4381 10.4803 12.5655C10.3529 12.6929 10.1801 12.7645 9.99989 12.7645C9.81971 12.7645 9.64692 12.6929 9.51951 12.5655C9.39211 12.4381 9.32054 12.2653 9.32054 12.0852V10.7509C9.32054 10.5362 9.38123 10.2944 9.54427 10.0843C9.74354 9.83063 9.98449 9.61595 10.1946 9.43751L10.3604 9.29892L10.3613 9.29802C10.5171 9.16849 10.6548 9.05345 10.787 8.92483C11.1204 8.60327 11.3024 8.31251 11.3024 7.89584C11.3064 7.7534 11.2751 7.61219 11.2112 7.4848C11.1474 7.35741 11.053 7.24781 10.9365 7.16577C10.6937 6.98371 10.3477 6.87682 9.99989 6.87682C9.55242 6.87682 9.26257 6.98642 9.06691 7.11686ZM10.9057 15.029C10.9057 15.2692 10.8103 15.4996 10.6404 15.6695C10.4705 15.8394 10.2401 15.9348 9.99989 15.9348C9.75965 15.9348 9.52926 15.8394 9.35939 15.6695C9.18952 15.4996 9.09409 15.2692 9.09409 15.029C9.09409 14.7888 9.18952 14.5584 9.35939 14.3885C9.52926 14.2186 9.75965 14.1232 9.99989 14.1232C10.2401 14.1232 10.4705 14.2186 10.6404 14.3885C10.8103 14.5584 10.9057 14.7888 10.9057 15.029Z" fill="#C7C7CF"/>
<path id="Vector_2" d="M9.9999 0.536255C15.5026 0.536255 19.9637 4.99731 19.9637 10.5C19.9637 16.0027 15.5026 20.4638 9.9999 20.4638C4.49718 20.4638 0.0361328 16.0027 0.0361328 10.5C0.0361328 4.99731 4.49718 0.536255 9.9999 0.536255ZM1.39483 10.5C1.39483 12.7822 2.30143 14.971 3.9152 16.5847C5.52896 18.1985 7.71769 19.1051 9.9999 19.1051C12.2821 19.1051 14.4708 18.1985 16.0846 16.5847C17.6984 14.971 18.605 12.7822 18.605 10.5C18.605 8.21782 17.6984 6.02908 16.0846 4.41532C14.4708 2.80155 12.2821 1.89495 9.9999 1.89495C7.71769 1.89495 5.52896 2.80155 3.9152 4.41532C2.30143 6.02908 1.39483 8.21782 1.39483 10.5Z" fill="#C7C7CF"/>
</g>
<defs>
<clipPath id="clip0_406_241">
<rect width="20" height="20" fill="white" transform="translate(0 0.5)"/>
</clipPath>
</defs>
</svg>
