<svg width="25" height="30" viewBox="0 0 25 30" fill="none" xmlns="http://www.w3.org/2000/svg">
<g id="Icon / operations" clip-path="url(#clip0_392_42)">
<path id="Vector" d="M14.7093 4.95C14.8558 4.80195 14.9381 4.60118 14.9381 4.39184C14.9381 4.1825 14.8558 3.98173 14.7093 3.83368L11.3953 0.484737C11.2479 0.340928 11.0506 0.261354 10.8457 0.263152C10.6409 0.264951 10.445 0.347979 10.3001 0.494354C10.1553 0.640729 10.0731 0.838739 10.0713 1.04574C10.0695 1.25273 10.1483 1.45216 10.2906 1.60105L11.8484 3.17526C9.44663 3.31017 7.14412 4.1887 5.25349 5.69158C3.36285 7.19446 1.97569 9.24887 1.28033 11.5759C0.584977 13.9029 0.615115 16.3898 1.36666 18.6989C2.1182 21.008 3.55473 23.0275 5.48122 24.4832C5.64698 24.6088 5.85533 24.6627 6.06045 24.6331C6.26557 24.6035 6.45065 24.4928 6.57497 24.3253C6.69929 24.1578 6.75267 23.9472 6.72336 23.7399C6.69406 23.5327 6.58448 23.3456 6.41872 23.22C4.70311 21.9242 3.43683 20.1134 2.80092 18.0465C2.16501 15.9797 2.19201 13.7626 2.87807 11.7121C3.56413 9.66173 4.87412 7.88298 6.62077 6.63019C8.36742 5.37741 10.4613 4.71471 12.6031 4.73684C12.6406 4.73684 12.6812 4.73368 12.7172 4.72895L10.2906 7.18263C10.1483 7.33153 10.0695 7.53095 10.0713 7.73795C10.0731 7.94495 10.1553 8.14296 10.3001 8.28933C10.445 8.43571 10.6409 8.51873 10.8457 8.52053C11.0506 8.52233 11.2479 8.44276 11.3953 8.29895L14.7093 4.95ZM10.2906 25.0468C10.1441 25.1949 10.0619 25.3957 10.0619 25.605C10.0619 25.8143 10.1441 26.0151 10.2906 26.1632L13.6047 29.5121C13.752 29.6559 13.9493 29.7355 14.1542 29.7337C14.359 29.7319 14.555 29.6489 14.6998 29.5025C14.8447 29.3561 14.9268 29.1581 14.9286 28.9511C14.9304 28.7441 14.8517 28.5447 14.7093 28.3958L13.1515 26.8216C15.5533 26.6867 17.8558 25.8081 19.7464 24.3053C21.6371 22.8024 23.0242 20.748 23.7196 18.4209C24.415 16.0939 24.3848 13.607 23.6333 11.2979C22.8817 8.9888 21.4452 6.96933 19.5187 5.51368C19.4366 5.45148 19.3432 5.40622 19.2439 5.38049C19.1445 5.35476 19.041 5.34906 18.9395 5.36372C18.8379 5.37839 18.7402 5.41312 18.6519 5.46594C18.5636 5.51876 18.4865 5.58864 18.425 5.67158C18.3634 5.75452 18.3186 5.8489 18.2932 5.94933C18.2677 6.04976 18.2621 6.15428 18.2766 6.25691C18.2911 6.35955 18.3255 6.45829 18.3777 6.5475C18.43 6.6367 18.4991 6.71464 18.5812 6.77684C20.2969 8.07277 21.5633 9.8837 22.1991 11.9507C22.835 14.0177 22.8079 16.235 22.1216 18.2855C21.4354 20.336 20.1251 22.1147 18.3782 23.3674C16.6313 24.62 14.5372 25.2825 12.3953 25.26C12.3571 25.2598 12.319 25.2625 12.2812 25.2679L14.7093 22.8142C14.784 22.7414 14.8435 22.6543 14.8844 22.558C14.9254 22.4616 14.9469 22.358 14.9478 22.2532C14.9487 22.1484 14.929 22.0444 14.8897 21.9474C14.8504 21.8504 14.7924 21.7622 14.719 21.6881C14.6457 21.614 14.5584 21.5554 14.4624 21.5157C14.3664 21.476 14.2635 21.456 14.1598 21.4569C14.0561 21.4578 13.9536 21.4796 13.8582 21.521C13.7629 21.5623 13.6767 21.6225 13.6047 21.6979L10.2906 25.0468Z" fill="#EEEEEE"/>
</g>
<defs>
<clipPath id="clip0_392_42">
<rect width="25" height="30" fill="white"/>
</clipPath>
</defs>
</svg>
