<svg width="25" height="27" viewBox="0 0 25 27" fill="none" xmlns="http://www.w3.org/2000/svg">
<g id="Icon / plan" clip-path="url(#clip0_392_50)">
<path id="Vector" d="M22.9167 2.71025H19.5313V1.43184C19.5313 1.22841 19.449 1.03331 19.3025 0.889457C19.156 0.745608 18.9573 0.664795 18.7501 0.664795C18.5429 0.664795 18.3442 0.745608 18.1977 0.889457C18.0511 1.03331 17.9688 1.22841 17.9688 1.43184V2.71025H7.03133V1.43184C7.03133 1.22841 6.94902 1.03331 6.80251 0.889457C6.656 0.745608 6.45728 0.664795 6.25008 0.664795C6.04288 0.664795 5.84417 0.745608 5.69766 0.889457C5.55114 1.03331 5.46883 1.22841 5.46883 1.43184V2.71025H2.08341C1.59995 2.71025 1.13628 2.89881 0.794418 3.23446C0.452555 3.57011 0.260498 4.02534 0.260498 4.50002V24.9546C0.260498 25.4292 0.452555 25.8845 0.794418 26.2201C1.13628 26.5558 1.59995 26.7443 2.08341 26.7443H22.9167C23.4002 26.7443 23.8639 26.5558 24.2057 26.2201C24.5476 25.8845 24.7397 25.4292 24.7397 24.9546V4.50002C24.7397 4.02534 24.5476 3.57011 24.2057 3.23446C23.8639 2.89881 23.4002 2.71025 22.9167 2.71025ZM2.08341 4.24434H5.46883V5.52275C5.46883 5.72618 5.55114 5.92128 5.69766 6.06513C5.84417 6.20898 6.04288 6.28979 6.25008 6.28979C6.45728 6.28979 6.656 6.20898 6.80251 6.06513C6.94902 5.92128 7.03133 5.72618 7.03133 5.52275V4.24434H17.9688V5.52275C17.9688 5.72618 18.0511 5.92128 18.1977 6.06513C18.3442 6.20898 18.5429 6.28979 18.7501 6.28979C18.9573 6.28979 19.156 6.20898 19.3025 6.06513C19.449 5.92128 19.5313 5.72618 19.5313 5.52275V4.24434H22.9167C22.9858 4.24434 23.0521 4.27128 23.1009 4.31923C23.1497 4.36718 23.1772 4.43221 23.1772 4.50002V8.84661H1.823V4.50002C1.823 4.43221 1.85043 4.36718 1.89927 4.31923C1.94811 4.27128 2.01435 4.24434 2.08341 4.24434ZM22.9167 25.2102H2.08341C2.01435 25.2102 1.94811 25.1833 1.89927 25.1354C1.85043 25.0874 1.823 25.0224 1.823 24.9546V10.3807H23.1772V24.9546C23.1772 25.0224 23.1497 25.0874 23.1009 25.1354C23.0521 25.1833 22.9858 25.2102 22.9167 25.2102ZM17.7397 14.1852C17.886 14.3291 17.9681 14.524 17.9681 14.7273C17.9681 14.9306 17.886 15.1255 17.7397 15.2693L11.4897 21.4057C11.3432 21.5493 11.1446 21.63 10.9376 21.63C10.7305 21.63 10.532 21.5493 10.3855 21.4057L7.2605 18.3375C7.1225 18.1921 7.04737 17.9998 7.05094 17.8011C7.05451 17.6024 7.1365 17.4128 7.27964 17.2722C7.42278 17.1317 7.61589 17.0512 7.81829 17.0477C8.02069 17.0442 8.21657 17.1179 8.36467 17.2534L10.9376 19.7783L16.6355 14.1852C16.782 14.0416 16.9806 13.9609 17.1876 13.9609C17.3946 13.9609 17.5932 14.0416 17.7397 14.1852Z" fill="#EEEEEE"/>
</g>
<defs>
<clipPath id="clip0_392_50">
<rect width="25" height="27" fill="white"/>
</clipPath>
</defs>
</svg>
