<svg width="25" height="25" viewBox="0 0 25 25" fill="none" xmlns="http://www.w3.org/2000/svg">
<g id="Icon / projects" clip-path="url(#clip0_392_53)">
<path id="Vector" d="M9.80392 11.4362C9.80392 11.2246 9.88139 11.0216 10.0193 10.872C10.1572 10.7224 10.3442 10.6383 10.5392 10.6383H14.4608C14.6558 10.6383 14.8428 10.7224 14.9807 10.872C15.1186 11.0216 15.1961 11.2246 15.1961 11.4362C15.1961 11.6478 15.1186 11.8507 14.9807 12.0004C14.8428 12.15 14.6558 12.234 14.4608 12.234H10.5392C10.3442 12.234 10.1572 12.15 10.0193 12.0004C9.88139 11.8507 9.80392 11.6478 9.80392 11.4362ZM25 6.11702V23.1383C25 23.6321 24.8192 24.1056 24.4975 24.4547C24.1757 24.8039 23.7393 25 23.2843 25H1.71569C1.26066 25 0.824267 24.8039 0.502513 24.4547C0.180759 24.1056 0 23.6321 0 23.1383V6.11702C0 5.62327 0.180759 5.14974 0.502513 4.8006C0.824267 4.45146 1.26066 4.25532 1.71569 4.25532H6.86275V2.92553C6.86275 2.14963 7.1468 1.40551 7.65241 0.856868C8.15802 0.308225 8.84378 0 9.55882 0H15.4412C16.1562 0 16.842 0.308225 17.3476 0.856868C17.8532 1.40551 18.1373 2.14963 18.1373 2.92553V4.25532H23.2843C23.7393 4.25532 24.1757 4.45146 24.4975 4.8006C24.8192 5.14974 25 5.62327 25 6.11702ZM8.33333 4.25532H16.6667V2.92553C16.6667 2.57285 16.5376 2.23461 16.3077 1.98523C16.0779 1.73585 15.7662 1.59574 15.4412 1.59574H9.55882C9.2338 1.59574 8.9221 1.73585 8.69227 1.98523C8.46245 2.23461 8.33333 2.57285 8.33333 2.92553V4.25532ZM1.47059 6.11702V11.8072C4.84711 13.8322 8.64206 14.8942 12.5 14.8936C16.3581 14.8943 20.1532 13.8318 23.5294 11.8059V6.11702C23.5294 6.04648 23.5036 5.97884 23.4576 5.92896C23.4117 5.87908 23.3493 5.85106 23.2843 5.85106H1.71569C1.65068 5.85106 1.58834 5.87908 1.54238 5.92896C1.49641 5.97884 1.47059 6.04648 1.47059 6.11702ZM23.5294 23.1383V13.613C20.1138 15.5034 16.3342 16.489 12.5 16.4894C8.66586 16.4898 4.88617 15.5046 1.47059 13.6144V23.1383C1.47059 23.2088 1.49641 23.2765 1.54238 23.3264C1.58834 23.3762 1.65068 23.4043 1.71569 23.4043H23.2843C23.3493 23.4043 23.4117 23.3762 23.4576 23.3264C23.5036 23.2765 23.5294 23.2088 23.5294 23.1383Z" fill="#EEEEEE"/>
</g>
<defs>
<clipPath id="clip0_392_53">
<rect width="25" height="25" fill="white"/>
</clipPath>
</defs>
</svg>
