<svg width="25" height="25" viewBox="0 0 25 25" fill="none" xmlns="http://www.w3.org/2000/svg">
<g id="Icon / settings" clip-path="url(#clip0_392_64)">
<path id="Vector" d="M12.5001 7.81248C11.8845 7.81248 11.275 7.93372 10.7063 8.16929C10.1376 8.40486 9.6208 8.75014 9.18553 9.18541C8.75025 9.62069 8.40498 10.1374 8.16941 10.7061C7.93384 11.2749 7.81259 11.8844 7.81259 12.5C7.81259 13.1155 7.93384 13.7251 8.16941 14.2938C8.40498 14.8625 8.75025 15.3792 9.18553 15.8145C9.6208 16.2498 10.1376 16.5951 10.7063 16.8306C11.275 17.0662 11.8845 17.1875 12.5001 17.1875C13.7433 17.1875 14.9356 16.6936 15.8147 15.8145C16.6937 14.9354 17.1876 13.7432 17.1876 12.5C17.1876 11.2568 16.6937 10.0645 15.8147 9.18541C14.9356 8.30634 13.7433 7.81248 12.5001 7.81248ZM9.37509 12.5C9.37509 12.0896 9.45592 11.6832 9.61297 11.3041C9.77001 10.9249 10.0002 10.5804 10.2904 10.2903C10.5806 10.0001 10.9251 9.7699 11.3042 9.61285C11.6833 9.4558 12.0897 9.37498 12.5001 9.37498C12.9105 9.37498 13.3168 9.4558 13.696 9.61285C14.0751 9.7699 14.4196 10.0001 14.7098 10.2903C15 10.5804 15.2302 10.9249 15.3872 11.3041C15.5443 11.6832 15.6251 12.0896 15.6251 12.5C15.6251 13.3288 15.2959 14.1236 14.7098 14.7097C14.1238 15.2957 13.3289 15.625 12.5001 15.625C11.6713 15.625 10.8764 15.2957 10.2904 14.7097C9.70433 14.1236 9.37509 13.3288 9.37509 12.5ZM20.5313 21.2447L18.7313 20.4541C18.4752 20.3428 18.1965 20.2929 17.9176 20.3085C17.6387 20.324 17.3673 20.4046 17.1251 20.5437C16.6386 20.8249 16.3282 21.3218 16.2668 21.8812L16.0501 23.8395C16.0283 24.0363 15.9462 24.2216 15.8151 24.37C15.6841 24.5184 15.5104 24.6227 15.3178 24.6687C13.4646 25.1104 11.5335 25.1104 9.6803 24.6687C9.48791 24.6225 9.31445 24.5181 9.18358 24.3697C9.05271 24.2213 8.97081 24.0362 8.94905 23.8395L8.73238 21.8843C8.70127 21.6092 8.6061 21.3451 8.45451 21.1134C8.30291 20.8817 8.09912 20.6887 7.85947 20.5499C7.62006 20.4115 7.35147 20.3313 7.07535 20.3157C6.79924 20.3001 6.52333 20.3497 6.26988 20.4604L4.46988 21.251C4.28792 21.3309 4.08561 21.3523 3.89096 21.3122C3.6963 21.2721 3.51894 21.1724 3.38343 21.027C2.08787 19.6387 1.12379 17.9748 0.563633 16.1604C0.504733 15.9697 0.506577 15.7654 0.568911 15.5758C0.631244 15.3861 0.750982 15.2206 0.91155 15.102L2.50218 13.927C2.7261 13.7625 2.90817 13.5476 3.03366 13.2997C3.15915 13.0518 3.22454 12.7778 3.22454 12.5C3.22454 12.2221 3.15915 11.9481 3.03366 11.7002C2.90817 11.4523 2.7261 11.2374 2.50218 11.0729L0.91155 9.90102C0.750775 9.78239 0.630903 9.61667 0.56856 9.42684C0.506218 9.23701 0.504496 9.03249 0.563633 8.84164C1.12495 7.02881 2.08973 5.36671 3.38551 3.9802C3.52115 3.83499 3.69857 3.73554 3.89321 3.6956C4.08786 3.65567 4.29011 3.67722 4.47197 3.75728L6.26363 4.54582C6.51856 4.65554 6.79564 4.70406 7.07268 4.6875C7.34973 4.67094 7.61905 4.58975 7.85909 4.45045C8.09914 4.31114 8.30324 4.11757 8.45506 3.88524C8.60689 3.65291 8.70222 3.38827 8.73343 3.11249L8.95218 1.15625C8.9742 0.957238 9.05781 0.770071 9.19133 0.620866C9.32485 0.471661 9.50162 0.367863 9.69697 0.323958C10.6147 0.119791 11.5511 0.0114583 12.5136 0C13.4532 0.0104166 14.3886 0.119791 15.3053 0.323958C15.5009 0.36778 15.6778 0.471689 15.8114 0.621126C15.945 0.770563 16.0284 0.95804 16.0501 1.15729L16.2678 3.11353C16.3147 3.54736 16.5201 3.94861 16.8446 4.2404C17.1691 4.53218 17.5898 4.69398 18.0261 4.69478C18.2688 4.69478 18.5095 4.64374 18.7345 4.54478L20.5261 3.75624C20.708 3.67618 20.9102 3.65462 21.1049 3.69456C21.2995 3.7345 21.477 3.83395 21.6126 3.97916C22.9081 5.36573 23.8725 7.02783 24.4334 8.8406C24.4924 9.0312 24.4908 9.23543 24.4286 9.42503C24.3665 9.61464 24.2469 9.78024 24.0866 9.89893L22.498 11.0729C22.0449 11.4062 21.7709 11.9364 21.7709 12.5C21.7709 13.0625 22.0449 13.5927 22.4991 13.927L24.0886 15.1C24.4178 15.3437 24.5574 15.7687 24.4366 16.1593C23.8756 17.9719 22.9116 19.6339 21.6168 21.0208C21.4812 21.1662 21.3039 21.2658 21.1092 21.3059C20.9146 21.3461 20.7133 21.3247 20.5313 21.2447ZM14.8574 21.0385C15.1059 20.26 15.635 19.6018 16.3418 19.1916C16.7964 18.9296 17.3062 18.778 17.8301 18.7489C18.3541 18.7197 18.8775 18.8139 19.3584 19.0239L20.7584 19.6385C21.6577 18.5973 22.3537 17.3967 22.8105 16.0989L21.572 15.1854C21.1503 14.8758 20.8072 14.4704 20.5704 14.004C20.3336 13.5376 20.2096 13.022 20.2084 12.4989C20.2084 11.4291 20.7261 10.4364 21.5699 9.8156L21.572 9.81456L22.8084 8.90102C22.3513 7.6035 21.6549 6.40324 20.7553 5.36249L19.3668 5.9729L19.3647 5.97394C18.9418 6.16144 18.4866 6.25728 18.0251 6.25728C17.2045 6.25604 16.4131 5.95233 15.8024 5.40424C15.1916 4.85615 14.8044 4.10215 14.7147 3.28645V3.28437L14.5449 1.76354C13.8748 1.63873 13.1952 1.57148 12.5136 1.5625C11.8234 1.57118 11.1352 1.63843 10.4563 1.76354L10.2866 3.28541C10.2282 3.80474 10.0487 4.30314 9.76271 4.74052C9.47667 5.17791 9.09201 5.54208 8.63965 5.80378C8.18728 6.06547 7.67982 6.21738 7.15807 6.2473C6.63632 6.27721 6.11482 6.1843 5.63551 5.97603L4.24384 5.36353C3.34418 6.40425 2.64776 7.60452 2.19072 8.90206L3.4303 9.8156C3.85108 10.1255 4.19315 10.5299 4.42889 10.9963C4.66463 11.4627 4.78746 11.9779 4.78746 12.5005C4.78746 13.0231 4.66463 13.5383 4.42889 14.0047C4.19315 14.4711 3.85108 14.8755 3.4303 15.1854L2.19072 16.1C2.6469 17.3996 3.34298 18.602 4.2428 19.6447L5.64384 19.0302C6.12164 18.821 6.64191 18.7271 7.16267 18.7561C7.68343 18.785 8.19009 18.936 8.64176 19.1968C9.09324 19.4576 9.47724 19.8207 9.7629 20.2569C10.0486 20.6931 10.2279 21.1902 10.2866 21.7083V21.7135L10.4553 23.2385C11.8063 23.5041 13.1949 23.5041 14.5459 23.2385L14.7147 21.7104C14.7397 21.4812 14.7866 21.2552 14.8574 21.0385Z" fill="#EEEEEE"/>
</g>
<defs>
<clipPath id="clip0_392_64">
<rect width="25" height="25" fill="white"/>
</clipPath>
</defs>
</svg>
