<svg width="25" height="30" viewBox="0 0 25 30" fill="none" xmlns="http://www.w3.org/2000/svg">
<g id="Group">
<path id="Vector" d="M7.01761 12.2826H17.9825M7.01761 23.1522H17.9825M7.01761 17.7174H12.5001M1.53516 27.7717V2.22827C1.53516 2.01206 1.6218 1.80471 1.77602 1.65183C1.93025 1.49894 2.13942 1.41306 2.35752 1.41306H18.3279C18.546 1.41325 18.755 1.49926 18.9091 1.65219L23.2238 5.92936C23.3005 6.00531 23.3613 6.09555 23.4027 6.19488C23.4441 6.29422 23.4652 6.40069 23.465 6.50816V27.7717C23.465 27.8788 23.4437 27.9848 23.4024 28.0837C23.3611 28.1826 23.3005 28.2725 23.2241 28.3482C23.1478 28.4239 23.0571 28.4839 22.9573 28.5249C22.8575 28.5659 22.7506 28.587 22.6426 28.587H2.35752C2.24953 28.587 2.14259 28.5659 2.04282 28.5249C1.94304 28.4839 1.85239 28.4239 1.77602 28.3482C1.69966 28.2725 1.63908 28.1826 1.59776 28.0837C1.55643 27.9848 1.53516 27.8788 1.53516 27.7717Z" stroke="#EEEEEE" stroke-width="1.5625" stroke-linecap="round" stroke-linejoin="round"/>
<path id="Vector_2" d="M17.9824 1.41306V6.03262C17.9824 6.24883 18.0691 6.45618 18.2233 6.60907C18.3775 6.76195 18.5867 6.84784 18.8048 6.84784H23.4649" stroke="#EEEEEE" stroke-width="1.5625" stroke-linecap="round" stroke-linejoin="round"/>
</g>
</svg>
