<svg width="27" height="22" viewBox="0 0 27 22" fill="none" xmlns="http://www.w3.org/2000/svg">
<g id="Icon / transactions">
<path id="Vector" d="M26 11.9091V10.697C26 6.12606 26 3.84 24.535 2.42061C23.0712 1 20.7137 1 16 1H11C6.28625 1 3.92875 1 2.465 2.42061C1 3.84 1 6.12606 1 10.697C1 15.2679 1 17.5539 2.465 18.9733C3.92875 20.3939 6.28625 20.3939 11 20.3939H14.75M11 15.5455H6M1 8.27273H26" stroke="#EEEEEE" stroke-width="1.5625" stroke-linecap="round"/>
<path id="Vector_2" d="M21 20.3939C23.0711 20.3939 24.75 18.7659 24.75 16.7576C24.75 14.7493 23.0711 13.1212 21 13.1212C18.9289 13.1212 17.25 14.7493 17.25 16.7576C17.25 18.7659 18.9289 20.3939 21 20.3939Z" stroke="#EEEEEE" stroke-width="1.5625"/>
<path id="Vector_3" d="M24.125 19.7879L25.375 21" stroke="#EEEEEE" stroke-width="1.5625" stroke-linecap="round"/>
</g>
</svg>
